<svg xmlns="http://www.w3.org/2000/svg" width="600" height="400" viewBox="0 0 600 400"><rect width="100%" height="100%" fill="#00a44d"/><path fill="#FFF" d="M170.435 206.185q0 3.69-1.47 6.48-1.48 2.79-4.06 4.68-2.58 1.88-5.99 2.87-3.4.98-7.25.98h-28.13v-58.22h31.16q3.03 0 5.49 1.31t4.19 3.4q1.72 2.1 2.66 4.76.94 2.67.94 5.37 0 4.27-2.13 8t-6.23 5.53q5 1.48 7.91 5.29t2.91 9.55m-11.39-2.13q0-1.56-.54-2.99-.53-1.44-1.43-2.5-.9-1.07-2.13-1.68-1.23-.62-2.71-.62h-17.38v15.34h16.81q1.55 0 2.91-.58 1.35-.57 2.33-1.6.99-1.02 1.56-2.42.58-1.39.58-2.95m-8.61-31.4h-15.58v14.67h15.08q2.87 0 4.88-1.96 2.01-1.97 2.01-5.42 0-3.36-1.84-5.33-1.85-1.96-4.55-1.96m47.72 49.36q-5.17 0-9.35-1.76-4.18-1.77-7.13-4.8t-4.55-7.05-1.6-8.45q0-4.59 1.56-8.65 1.55-4.06 4.51-7.13 2.95-3.08 7.17-4.88 4.22-1.81 9.47-1.81t9.39 1.81q4.14 1.8 7.05 4.84 2.91 3.03 4.43 7.05t1.52 8.36q0 1.07-.04 2.05-.04.99-.21 1.64h-33.21q.25 2.54 1.23 4.51.99 1.97 2.54 3.36 1.56 1.4 3.53 2.14 1.97.73 4.1.73 3.28 0 6.19-1.59 2.91-1.6 3.98-4.23l9.43 2.63q-2.38 4.92-7.59 8.07-5.2 3.16-12.42 3.16m-11.15-25.91h22.3q-.41-4.84-3.57-7.75-3.15-2.91-7.66-2.91-2.22 0-4.14.78-1.93.78-3.41 2.17-1.47 1.39-2.42 3.36-.94 1.97-1.1 4.35m80.28-1.72v26.81h-10.99v-24.11q0-5.16-1.81-7.54-1.8-2.38-5-2.38-1.64 0-3.36.66-1.72.65-3.24 1.84t-2.75 2.83-1.8 3.61v25.09h-10.99v-42.97h9.92v7.96q2.38-4.1 6.89-6.4t10.17-2.3q4.02 0 6.56 1.48t3.94 3.85q1.39 2.38 1.92 5.42.54 3.03.54 6.15m20.58 26.81h-10.99v-42.97h10.99zm0-48.95h-10.99v-10.91h10.99zm49.85 22.14v26.81h-10.98v-24.11q0-5.16-1.81-7.54-1.8-2.38-5-2.38-1.64 0-3.36.66-1.72.65-3.24 1.84t-2.75 2.83-1.8 3.61v25.09h-10.99v-42.97h9.92v7.96q2.38-4.1 6.89-6.4t10.17-2.3q4.02 0 6.56 1.48t3.93 3.85q1.4 2.38 1.93 5.42.53 3.03.53 6.15m44.45-31.41v9.92h-18.62v48.3h-11.23v-48.3h-18.61v-9.92zm22.71 14.76v10q-5 .09-8.94 1.93-3.93 1.85-5.65 5.54v25.99h-10.99v-42.97h10.08v9.19q1.15-2.22 2.71-3.98t3.36-3.08q1.81-1.31 3.65-2 1.85-.7 3.57-.7h1.35q.45 0 .86.08m17.14 43.46h-10.99v-42.97h10.99zm0-48.95h-10.99v-10.91h10.99zm35.67 49.77q-5.08 0-8.86-2.26-3.77-2.25-5.9-6.1v25.01h-10.99v-60.44h9.6v7.38q2.37-3.77 6.15-5.94 3.77-2.18 8.69-2.18 4.34 0 8.03 1.77 3.69 1.76 6.36 4.75 2.66 3 4.18 7.05 1.52 4.06 1.52 8.57 0 4.68-1.4 8.78-1.39 4.1-3.89 7.13-2.5 3.04-5.95 4.76-3.44 1.72-7.54 1.72m-3.69-9.35q2.46 0 4.55-1.06 2.09-1.07 3.57-2.87 1.47-1.81 2.29-4.19.82-2.37.82-4.92 0-2.7-.9-5.04t-2.5-4.06-3.77-2.7q-2.17-.99-4.72-.99-1.55 0-3.19.53-1.64.54-3.04 1.52-1.39.99-2.5 2.3t-1.68 2.87v10.08q1.48 3.69 4.51 6.11t6.56 2.42"/></svg>