<svg xmlns="http://www.w3.org/2000/svg" width="400" height="500" viewBox="0 0 400 500"><rect width="100%" height="100%" fill="#00a44d"/><path fill="#FFF" d="M113.1 254.16q0 2.47-.99 4.34t-2.72 3.14q-1.73 1.26-4.02 1.92-2.28.66-4.86.66H81.64v-39.05h20.9q2.03 0 3.69.88 1.65.88 2.8 2.28 1.16 1.41 1.79 3.19.63 1.79.63 3.61 0 2.86-1.43 5.36t-4.18 3.71q3.36.99 5.31 3.55 1.95 2.55 1.95 6.41m-7.64-1.43q0-1.05-.36-2.01t-.97-1.68q-.6-.71-1.42-1.13-.83-.41-1.82-.41H89.23v10.29h11.28q1.04 0 1.95-.39t1.56-1.07q.66-.69 1.05-1.63.39-.93.39-1.97m-5.78-21.07H89.23v9.85h10.12q1.92 0 3.27-1.33 1.35-1.32 1.35-3.62 0-2.26-1.24-3.58t-3.05-1.32m32.01 33.11q-3.46 0-6.27-1.18-2.8-1.18-4.78-3.22-1.98-2.03-3.06-4.73-1.07-2.7-1.07-5.66 0-3.08 1.05-5.81 1.04-2.72 3.02-4.78t4.81-3.28q2.84-1.21 6.36-1.21t6.29 1.21q2.78 1.22 4.73 3.25 1.96 2.04 2.97 4.73 1.02 2.7 1.02 5.61 0 .72-.03 1.38-.02.66-.13 1.1h-22.28q.17 1.7.83 3.02t1.7 2.26q1.05.93 2.37 1.43 1.32.49 2.75.49 2.19 0 4.15-1.07 1.95-1.08 2.67-2.83l6.32 1.75q-1.59 3.3-5.09 5.42-3.49 2.12-8.33 2.12m-7.48-17.38h14.96q-.27-3.24-2.39-5.2-2.12-1.95-5.15-1.95-1.48 0-2.77.52-1.29.53-2.28 1.46t-1.63 2.25q-.63 1.32-.74 2.92m53.85-1.15v17.98h-7.37v-16.17q0-3.47-1.21-5.06t-3.36-1.59q-1.1 0-2.25.43-1.16.44-2.18 1.24-1.01.8-1.84 1.9-.82 1.1-1.21 2.42v16.83h-7.37V235.4h6.66v5.34q1.59-2.75 4.62-4.29 3.02-1.55 6.82-1.55 2.69 0 4.4 1 1.7.98 2.64 2.58.93 1.6 1.29 3.63.36 2.04.36 4.13m13.8 17.98h-7.37V235.4h7.37zm0-32.84h-7.37v-7.31h7.37zm33.44 14.86v17.98h-7.37v-16.17q0-3.47-1.21-5.06t-3.35-1.59q-1.1 0-2.26.43-1.15.44-2.17 1.24t-1.84 1.9q-.83 1.1-1.21 2.42v16.83h-7.37V235.4h6.65v5.34q1.6-2.75 4.62-4.29 3.03-1.55 6.82-1.55 2.7 0 4.4 1 1.71.98 2.64 2.58.94 1.6 1.29 3.63.36 2.04.36 4.13m29.81-21.07v6.65h-12.48v32.4h-7.54v-32.4h-12.48v-6.65zm15.24 9.9v6.71q-3.36.05-6 1.29t-3.79 3.72v17.43h-7.37V235.4h6.76v6.16q.77-1.48 1.82-2.67 1.04-1.18 2.25-2.06t2.45-1.35 2.39-.47h.91q.3 0 .58.06m11.49 29.15h-7.37V235.4h7.37zm0-32.84h-7.37v-7.31h7.37zm23.93 33.39q-3.41 0-5.94-1.51-2.53-1.52-3.96-4.1v16.77h-7.37V235.4h6.43v4.95q1.6-2.53 4.13-3.99t5.83-1.46q2.91 0 5.39 1.19 2.47 1.18 4.26 3.19t2.8 4.73q1.02 2.72 1.02 5.75 0 3.13-.93 5.88-.94 2.75-2.62 4.79-1.67 2.03-3.98 3.19-2.31 1.15-5.06 1.15m-2.48-6.27q1.65 0 3.05-.71 1.41-.72 2.4-1.93t1.54-2.81q.55-1.59.55-3.29 0-1.82-.61-3.39-.6-1.56-1.68-2.72-1.07-1.16-2.53-1.82-1.45-.66-3.16-.66-1.04 0-2.14.36t-2.04 1.02q-.93.66-1.68 1.54-.74.88-1.12 1.92v6.77q.99 2.48 3.02 4.1 2.04 1.62 4.4 1.62"/></svg>