<svg width="25" height="24" viewBox="0 0 25 24" fill="none" xmlns="http://www.w3.org/2000/svg">
<path d="M17.5 2H7.5C4.73858 2 2.5 4.23858 2.5 7V17C2.5 19.7614 4.73858 22 7.5 22H17.5C20.2614 22 22.5 19.7614 22.5 17V7C22.5 4.23858 20.2614 2 17.5 2Z" stroke="#FEF3C7" stroke-width="2" stroke-linecap="round" stroke-linejoin="round"/>
<path d="M16.5 11.3703C16.6234 12.2025 16.4813 13.0525 16.0938 13.7993C15.7063 14.5461 15.0932 15.1517 14.3416 15.53C13.5901 15.9082 12.7385 16.0399 11.9078 15.9062C11.0771 15.7726 10.3098 15.3804 9.71485 14.7855C9.11993 14.1905 8.72774 13.4232 8.59408 12.5925C8.46042 11.7619 8.59208 10.9102 8.97034 10.1587C9.3486 9.40716 9.9542 8.79404 10.701 8.40654C11.4478 8.01904 12.2978 7.87689 13.13 8.0003C13.9789 8.12619 14.7649 8.52176 15.3717 9.12861C15.9785 9.73545 16.3741 10.5214 16.5 11.3703Z" stroke="#FEF3C7" stroke-width="2" stroke-linecap="round" stroke-linejoin="round"/>
<path d="M18 6.5H18.01" stroke="#FEF3C7" stroke-width="2" stroke-linecap="round" stroke-linejoin="round"/>
</svg>
