<svg width="25" height="24" viewBox="0 0 25 24" fill="none" xmlns="http://www.w3.org/2000/svg">
<path d="M16.5 10C16.5 11.0609 16.0786 12.0783 15.3284 12.8284C14.5783 13.5786 13.5609 14 12.5 14C11.4391 14 10.4217 13.5786 9.67157 12.8284C8.92143 12.0783 8.5 11.0609 8.5 10" stroke="#78350F" stroke-width="2" stroke-linecap="round" stroke-linejoin="round"/>
<path d="M3.60303 6.03418H21.397" stroke="#78350F" stroke-width="2" stroke-linecap="round" stroke-linejoin="round"/>
<path d="M3.9 5.467C3.64036 5.81319 3.5 6.23426 3.5 6.667V20C3.5 20.5304 3.71071 21.0391 4.08579 21.4142C4.46086 21.7893 4.96957 22 5.5 22H19.5C20.0304 22 20.5391 21.7893 20.9142 21.4142C21.2893 21.0391 21.5 20.5304 21.5 20V6.667C21.5 6.23426 21.3596 5.81319 21.1 5.467L19.1 2.8C18.9137 2.55161 18.6721 2.35 18.3944 2.21115C18.1167 2.07229 17.8105 2 17.5 2H7.5C7.18951 2 6.88328 2.07229 6.60557 2.21115C6.32786 2.35 6.08629 2.55161 5.9 2.8L3.9 5.467Z" stroke="#78350F" stroke-width="2" stroke-linecap="round" stroke-linejoin="round"/>
</svg>
